<?xml version="1.0" standalone="no"?>
<!DOCTYPE svg PUBLIC "-//W3C//DTD SVG 20010904//EN"
 "http://www.w3.org/TR/2001/REC-SVG-20010904/DTD/svg10.dtd">
<svg version="1.0" xmlns="http://www.w3.org/2000/svg"
 width="960.000000pt" height="960.000000pt" viewBox="0 0 960.000000 960.000000"
 preserveAspectRatio="xMidYMid meet">
<metadata>
Created by potrace 1.14, written by Peter Selinger 2001-2017
</metadata>
<g transform="translate(0.000000,960.000000) scale(0.100000,-0.100000)"
fill="#000000" stroke="none">
<path d="M2620 7529 c-488 -50 -946 -266 -1289 -610 -502 -502 -715 -1203
-580 -1907 62 -322 231 -677 444 -932 77 -92 249 -259 330 -321 334 -255 725
-405 1145 -439 146 -12 284 -7 450 16 722 102 1346 577 1637 1247 42 97 48
106 57 85 5 -12 38 -83 72 -156 127 -267 312 -509 534 -694 577 -483 1331
-628 2036 -393 995 331 1598 1352 1408 2381 -122 665 -558 1232 -1169 1525
-631 302 -1376 270 -1980 -85 -280 -166 -557 -437 -725 -711 -51 -82 -139
-259 -166 -329 l-18 -49 -14 34 c-56 131 -152 312 -210 400 -339 505 -848 830
-1450 924 -128 20 -386 27 -512 14z m4963 -302 c40 -30 110 -102 167 -172 l99
-120 -67 -68 c-63 -64 -69 -73 -103 -175 -34 -101 -37 -107 -65 -110 -28 -3
-32 3 -117 158 -87 158 -89 160 -122 160 -32 0 -37 5 -81 80 l-46 80 -49 0
-49 0 -25 56 c-14 31 -25 60 -25 65 0 5 90 9 200 9 l200 0 0 45 c0 25 3 45 8
45 4 0 38 -24 75 -53z m-4719 -279 l40 -58 288 0 287 0 12 -22 c6 -13 13 -25
15 -27 2 -2 106 -9 232 -15 207 -10 230 -13 258 -33 24 -17 51 -23 129 -29 57
-3 115 -14 135 -23 34 -15 25 -16 -208 -19 l-242 -2 16 -31 15 -31 -86 -114
c-48 -63 -88 -114 -90 -114 -2 0 -8 22 -15 50 -12 49 -12 50 27 102 33 46 34
51 13 37 -14 -9 -66 -39 -116 -68 l-91 -53 -67 -129 -68 -129 31 0 c17 0 31
-4 31 -9 0 -5 -30 -59 -66 -120 l-67 -111 -41 0 -42 0 -26 -87 -25 -88 23 -28
c29 -34 29 -44 5 -81 l-19 -28 -33 63 -34 64 -45 0 -44 0 -14 -50 -14 -49 56
-53 56 -52 -6 -70 c-8 -84 -28 -107 -146 -171 -43 -23 -78 -44 -78 -46 0 -2
18 -33 40 -69 34 -55 40 -74 40 -119 0 -54 0 -54 -50 -86 -28 -18 -57 -33 -66
-34 -10 -1 -25 21 -42 63 l-27 65 -3 -99 c-3 -91 -1 -101 23 -136 19 -29 25
-51 25 -91 l0 -53 -21 25 c-11 14 -33 51 -49 82 -30 57 -30 60 -30 215 0 97
-5 169 -12 190 -11 29 -16 33 -49 33 l-38 0 -71 -135 c-39 -74 -74 -137 -78
-139 -13 -8 -135 234 -162 324 l-27 85 -59 3 -59 3 -44 95 -44 94 -38 0 c-22
0 -39 -2 -39 -4 0 -3 27 -61 59 -130 56 -118 61 -126 88 -126 30 0 53 -15 53
-35 0 -6 -42 -32 -94 -57 l-95 -47 -34 62 c-19 34 -55 101 -81 148 -46 86 -47
87 -92 94 -25 3 -47 5 -49 3 -2 -2 16 -60 41 -128 39 -109 53 -134 106 -197
l61 -73 84 0 c45 0 83 -2 83 -5 0 -3 -18 -41 -40 -85 -34 -68 -51 -89 -125
-151 l-86 -72 6 -61 c6 -60 5 -62 -46 -146 -42 -69 -53 -98 -61 -154 -6 -42
-26 -106 -52 -165 l-42 -96 -95 -2 -94 -3 -82 135 c-46 74 -83 142 -83 150 0
8 14 62 31 119 l30 103 -49 109 -49 109 18 27 c24 33 23 37 -4 69 l-22 26
-115 -13 c-180 -20 -167 -23 -233 56 l-57 69 0 147 0 147 91 93 91 92 -42 28
-42 28 4 61 c3 33 1 70 -3 83 -8 22 -7 22 66 22 l75 0 0 43 c0 31 -9 57 -30
90 -16 26 -30 50 -30 52 0 3 39 5 88 5 l87 0 24 60 c17 43 29 60 43 60 22 0
23 9 3 37 -15 21 -11 53 5 53 5 0 19 -18 31 -40 l23 -40 68 0 c66 0 74 3 154
52 83 50 84 52 84 91 l0 40 -60 -7 c-58 -7 -59 -6 -75 23 -20 39 -19 46 8 117
18 46 21 65 13 87 -5 15 -12 27 -15 27 -3 0 -28 -43 -54 -95 -48 -94 -48 -95
-31 -124 17 -28 16 -31 -7 -85 -13 -31 -27 -56 -31 -56 -4 0 -18 21 -31 47
-24 46 -25 46 -38 25 -8 -12 -17 -22 -21 -22 -17 0 -38 63 -38 115 0 57 0 57
113 206 l112 149 90 0 90 0 27 -59 26 -60 -37 -3 -36 -3 61 -42 62 -42 37 99
38 100 87 0 88 0 43 68 c23 37 58 91 76 120 l34 52 327 -2 327 -3 39 -57z
m4186 42 c9 -17 21 -20 73 -20 l63 0 53 -100 c51 -97 53 -100 87 -100 34 0 36
-3 70 -76 19 -41 34 -79 34 -85 0 -5 -40 -9 -90 -9 l-90 0 -25 55 c-24 55 -24
55 -68 55 -40 0 -45 3 -60 35 -9 20 -17 40 -17 45 0 6 25 10 56 10 l55 0 -27
50 -27 49 -90 3 -90 3 -29 53 -30 52 71 0 c60 0 72 -3 81 -20z m-183 -145 c18
-33 35 -64 37 -70 3 -5 14 2 26 18 12 15 31 27 44 27 19 0 27 -12 48 -65 l26
-65 -87 0 -87 0 -26 -80 -27 -81 32 -54 c31 -54 33 -55 79 -55 42 0 48 -3 68
-36 25 -40 26 -39 66 33 l29 52 -33 66 c-17 36 -32 68 -32 70 0 3 32 5 71 5
l70 0 34 -75 34 -75 77 0 76 0 -7 31 -7 30 44 -3 43 -3 52 -105 c29 -58 53
-108 53 -112 0 -5 -70 -8 -155 -8 -85 0 -155 -2 -155 -5 0 -4 7 -19 15 -35 15
-28 19 -30 79 -30 50 0 67 -4 81 -20 17 -19 16 -19 -51 -22 l-69 -3 -40 -77
c-38 -74 -42 -78 -74 -78 l-33 0 6 -72 7 -73 -35 -42 c-20 -22 -36 -47 -36
-55 0 -7 9 -37 20 -66 25 -65 25 -72 0 -72 -13 0 -29 18 -52 60 l-33 60 -119
0 -118 0 6 -27 c27 -109 49 -164 74 -183 l27 -22 3 21 c3 17 11 21 38 21 39 0
38 3 23 -55 -11 -44 -10 -46 26 -94 38 -50 61 -61 130 -61 24 0 35 6 45 25
l13 25 151 0 151 -1 100 -82 c90 -75 100 -86 103 -120 l3 -37 50 0 c33 0 66
-8 99 -25 44 -23 50 -29 50 -58 0 -17 3 -61 6 -97 l6 -66 -56 -43 -56 -43 0
-68 0 -67 -90 -62 c-58 -40 -106 -83 -135 -121 -45 -59 -47 -60 -96 -60 l-49
0 0 -49 c0 -48 -2 -50 -70 -113 l-69 -63 19 -95 c11 -51 19 -97 18 -101 -2 -4
-31 4 -65 18 -59 25 -62 28 -88 88 l-26 63 68 315 69 315 -80 61 -80 61 -26
87 -27 88 24 69 c13 38 23 73 23 78 0 4 -13 8 -28 8 -21 0 -80 39 -226 148
l-197 147 -75 148 -76 147 -40 0 c-47 0 -47 -1 18 -132 43 -86 44 -88 21 -88
-19 0 -34 21 -89 123 -82 150 -113 248 -105 332 5 56 4 62 -27 100 -44 53 -50
67 -71 153 l-18 74 -66 43 -66 43 -73 -8 c-64 -8 -78 -14 -130 -53 -80 -63
-255 -149 -294 -145 -29 3 -27 6 51 58 l82 55 -49 3 c-45 3 -51 6 -70 41 -19
34 -20 40 -7 51 21 17 19 30 -5 30 -16 0 -40 26 -40 44 0 3 14 6 30 6 36 0 36
1 10 75 -11 32 -20 59 -20 60 0 1 26 22 58 47 l58 46 255 -20 256 -20 69 35
69 35 133 -26 133 -26 87 47 c64 35 96 46 122 45 32 -3 38 -9 67 -63z m1218
-5 c14 -28 14 -32 -12 -80 l-28 -50 -56 0 -56 0 -32 71 c-17 40 -31 76 -31 80
0 5 45 9 100 9 l99 0 16 -30z m-6943 -541 c-2 -14 6 -47 18 -73 11 -26 20 -63
20 -82 l0 -34 -52 0 -53 0 -3 46 c-2 34 1 49 14 58 14 11 15 20 6 59 -11 53
-8 59 28 55 20 -2 24 -8 22 -29z m2943 -234 c98 -25 187 -102 201 -173 l7 -32
-131 0 c-124 0 -131 1 -137 21 -13 41 -114 63 -169 37 -58 -26 -36 -78 42 -97
21 -5 94 -22 164 -39 146 -34 205 -68 239 -134 41 -81 9 -189 -73 -244 -119
-81 -410 -92 -553 -22 -72 36 -135 114 -135 168 0 19 6 20 133 20 133 0 134 0
145 -25 15 -32 49 -45 120 -45 87 0 135 35 102 75 -13 16 -118 49 -190 60 -25
4 -80 18 -123 32 -137 43 -196 126 -166 236 22 82 80 132 189 161 74 20 259
20 335 1z m-686 -73 c-35 -4 -35 -9 -7 -90 l23 -62 -23 -43 c-58 -110 -56
-108 -120 -105 -44 2 -58 7 -60 20 -2 12 5 17 30 20 27 2 39 12 65 53 30 45
33 57 33 128 0 59 5 88 21 119 l21 41 23 -39 24 -39 -30 -3z m2651 -7 l0 -85
-210 0 -210 0 0 -50 0 -50 178 -2 177 -3 0 -75 0 -75 -177 -3 -178 -2 0 -60 0
-60 220 0 220 0 0 -85 0 -85 -357 2 -358 3 -3 345 c-1 190 0 351 3 357 3 10
82 13 350 13 l345 0 0 -85z m-1011 59 c184 -51 260 -244 149 -379 -62 -75
-163 -105 -353 -105 l-125 0 0 -110 0 -110 -140 0 -140 0 0 360 0 360 277 0
c220 0 288 -3 332 -16z m-1729 -994 l0 -210 -50 0 -50 0 0 210 0 210 50 0 50
0 0 -210z m3080 0 l0 -210 -40 0 -40 0 0 210 0 210 40 0 40 0 0 -210z m-2600
145 c0 -41 2 -45 25 -45 21 0 25 -5 25 -30 0 -25 -4 -30 -25 -30 l-26 0 3 -92
c3 -88 4 -93 26 -96 17 -3 22 -10 22 -33 0 -29 -1 -29 -54 -29 -77 0 -86 15
-86 147 0 96 -1 103 -20 103 -16 0 -20 7 -20 30 0 23 4 30 20 30 17 0 20 7 20
38 0 48 4 52 52 52 l38 0 0 -45z m1320 0 c0 -41 2 -45 25 -45 21 0 25 -5 25
-30 0 -25 -4 -30 -25 -30 l-26 0 3 -92 c3 -88 4 -93 26 -96 17 -3 22 -10 22
-33 0 -28 -2 -29 -46 -29 -81 0 -84 4 -84 135 0 108 -1 115 -20 115 -16 0 -20
7 -20 30 0 23 4 30 20 30 17 0 20 7 20 45 l0 45 40 0 40 0 0 -45z m-1502 -69
c25 -25 26 -32 30 -156 l4 -130 -46 0 -46 0 0 110 c0 104 -1 110 -24 125 -27
18 -69 7 -80 -20 -3 -9 -6 -61 -6 -116 l0 -99 -45 0 -45 0 0 155 0 155 40 0
c29 0 40 -4 40 -15 0 -12 6 -11 33 6 44 28 110 21 145 -15z m473 11 c41 -27
69 -79 69 -129 l0 -38 -105 0 c-114 0 -127 -8 -85 -50 24 -24 63 -26 84 -5 9
9 33 15 61 15 l47 0 -19 -31 c-37 -64 -131 -87 -203 -51 -50 25 -75 74 -75
147 0 42 6 70 20 95 40 68 140 91 206 47z m289 -22 c0 -45 0 -45 -34 -45 -54
0 -66 -26 -66 -137 l0 -93 -45 0 -45 0 0 155 0 155 45 0 c34 0 45 -4 45 -16 0
-13 5 -12 26 5 15 12 37 21 50 21 22 0 24 -4 24 -45z m277 10 c21 -24 23 -35
23 -156 l0 -129 -40 0 -40 0 0 105 c0 92 -3 108 -20 125 -11 11 -27 20 -35 20
-8 0 -24 -9 -35 -20 -17 -17 -20 -33 -20 -125 l0 -105 -45 0 -45 0 0 155 0
155 40 0 c29 0 40 -4 40 -15 0 -12 6 -11 33 6 45 28 113 21 144 -16z m297 6
c23 -22 25 -31 28 -140 2 -64 7 -124 12 -133 7 -16 3 -18 -36 -18 -24 0 -49 5
-54 10 -7 7 -20 6 -40 -5 -50 -26 -111 -16 -141 24 -7 9 -13 35 -13 57 0 65
51 104 134 104 12 0 31 6 41 14 16 12 17 16 6 30 -19 23 -68 20 -83 -4 -18
-28 -88 -29 -88 -1 0 23 36 70 64 82 11 5 49 8 83 6 49 -2 68 -8 87 -26z m644
2 c43 -32 65 -78 65 -138 0 -95 -54 -155 -145 -162 -104 -8 -168 54 -168 162
0 73 25 119 80 148 45 24 130 19 168 -10z m344 -2 l33 -29 3 -131 4 -131 -46
0 -46 0 0 108 c0 59 -4 113 -9 121 -13 21 -71 18 -87 -4 -10 -13 -14 -51 -14
-122 l0 -103 -45 0 -45 0 0 155 0 155 45 0 c25 0 45 -5 45 -10 0 -6 12 -4 28
4 45 25 97 20 134 -13z m302 0 c23 -22 25 -31 28 -140 2 -64 7 -124 12 -133 7
-16 3 -18 -36 -18 -24 0 -49 5 -54 10 -7 7 -20 6 -40 -5 -50 -26 -111 -16
-141 24 -7 9 -13 35 -13 57 0 65 51 104 134 104 12 0 31 6 41 14 16 12 17 16
6 30 -19 23 -68 20 -83 -4 -18 -28 -88 -29 -88 -1 0 23 36 70 64 82 11 5 49 8
83 6 49 -2 68 -8 87 -26z m-934 -136 l0 -155 -45 0 -45 0 0 155 0 155 45 0 45
0 0 -155z m-2205 -370 c-12 -109 -9 -105 -79 -105 -60 0 -63 1 -77 32 l-15 31
70 68 c67 64 72 67 90 51 15 -14 17 -26 11 -77z m-1051 11 c26 -33 45 -63 44
-66 -11 -27 -155 -238 -161 -237 -4 1 -25 31 -46 67 l-40 65 31 55 c79 143
111 191 118 183 5 -4 29 -35 54 -67z m1536 -47 c6 -11 39 -38 72 -60 l61 -39
-91 0 -90 0 -22 35 c-12 19 -25 35 -30 35 -4 0 -32 11 -61 24 l-54 25 102 0
c93 1 103 -1 113 -20z m-71 -229 c17 -47 55 -123 85 -170 29 -47 56 -90 59
-96 12 -21 -47 -143 -97 -204 l-50 -60 -55 0 c-53 0 -57 2 -95 46 -36 40 -49
47 -101 58 -57 11 -66 10 -195 -26 l-135 -38 -35 29 c-34 28 -35 30 -43 127
-4 54 -5 104 -3 110 2 6 40 32 84 58 75 44 81 50 103 104 28 72 32 76 59 62
17 -9 28 -9 44 -1 11 6 40 15 64 20 41 9 42 9 42 -19 0 -25 6 -30 68 -53 37
-14 70 -22 73 -19 4 4 24 47 45 95 24 57 40 83 45 74 4 -7 22 -51 38 -97z
m275 -502 c-4 -13 -9 -29 -11 -35 -3 -7 2 -13 11 -13 20 0 20 -11 -1 -55 -17
-35 -17 -35 -80 -35 l-63 0 21 43 c49 95 68 117 100 117 27 0 30 -3 23 -22z"/>
<path d="M1399 5938 c5 -13 21 -49 35 -81 l26 -58 -32 -39 c-17 -22 -35 -40
-40 -40 -4 0 -8 21 -8 48 -1 56 -41 158 -61 154 -8 -1 -40 -12 -71 -23 l-57
-21 -21 -67 c-18 -54 -31 -75 -73 -114 l-51 -47 142 6 142 7 0 -24 c0 -37 9
-43 92 -67 95 -28 98 -27 98 3 0 25 0 25 99 25 l98 0 19 47 c11 27 21 51 22
55 2 5 -31 8 -72 8 -83 0 -81 -2 -90 68 l-6 42 130 0 c71 0 130 3 130 6 0 3
-15 30 -32 60 l-33 53 -70 1 -70 0 -49 -75 c-27 -41 -52 -75 -56 -75 -5 0 -29
38 -55 85 -38 71 -50 85 -70 85 -21 0 -23 -3 -16 -22z"/>
<path d="M4710 5798 l0 -81 98 6 c54 3 110 11 125 16 56 22 60 101 7 128 -15
8 -65 13 -127 13 l-103 0 0 -82z"/>
<path d="M5462 5078 c-27 -13 -45 -72 -34 -112 5 -17 20 -38 34 -49 24 -18 30
-18 57 -7 61 25 64 148 4 171 -29 11 -32 11 -61 -3z"/>
<path d="M8482 3749 c-106 -53 -137 -207 -59 -296 79 -89 205 -96 290 -15 53
50 72 111 56 182 -28 124 -168 187 -287 129z m178 -38 c44 -32 70 -80 70 -130
0 -95 -62 -161 -153 -161 -97 0 -164 75 -154 173 5 60 30 95 88 125 50 26 107
24 149 -7z"/>
<path d="M8500 3575 c0 -108 1 -115 20 -115 17 0 20 7 20 50 0 68 25 68 63 0
19 -33 35 -50 48 -50 24 0 24 2 -6 50 -29 45 -31 60 -10 60 17 0 35 30 35 59
0 41 -34 61 -105 61 l-65 0 0 -115z"/>
<path d="M1280 2515 l0 -255 55 0 55 0 0 78 c0 49 5 85 13 96 12 16 18 8 57
-78 l43 -96 53 0 c30 0 54 3 54 6 0 3 -27 64 -60 136 -33 73 -60 139 -60 147
1 9 27 61 60 116 l59 100 -46 3 c-25 2 -52 1 -59 -2 -7 -3 -36 -49 -63 -103
l-50 -98 0 103 -1 102 -55 0 -55 0 0 -255z"/>
<path d="M3140 2516 l0 -256 51 0 52 0 -6 168 -7 167 29 -80 c16 -44 45 -118
64 -165 l35 -85 56 -3 56 -3 0 256 0 255 -51 0 -51 0 4 -179 3 -178 -36 101
c-20 56 -50 135 -66 176 l-31 75 -51 3 -51 3 0 -255z"/>
<path d="M5280 2515 l0 -255 45 0 45 0 0 255 0 255 -45 0 -45 0 0 -255z"/>
<path d="M5640 2515 l0 -255 50 0 50 0 0 111 0 110 48 -7 c67 -9 72 -16 72
-98 0 -112 3 -116 67 -116 49 0 54 2 48 18 -4 9 -10 59 -14 110 -6 86 -9 96
-33 117 -25 22 -26 24 -9 30 43 13 60 129 27 180 -28 42 -73 55 -196 55 l-110
0 0 -255z"/>
<path d="M7900 2515 l0 -255 50 0 50 0 0 148 c0 81 4 153 9 160 4 8 19 12 32
10 l24 -3 3 -157 3 -158 49 0 50 0 0 154 c0 159 -9 209 -40 226 -29 16 -92 12
-112 -7 -17 -15 -18 -13 -18 60 l0 77 -50 0 -50 0 0 -255z"/>
<path d="M3890 2695 c0 -42 -3 -55 -15 -55 -10 0 -15 -11 -15 -35 0 -28 4 -35
20 -35 19 0 20 -7 20 -145 0 -142 0 -145 24 -160 15 -10 40 -15 63 -13 35 3
38 6 41 36 3 27 -1 35 -17 39 -20 5 -21 12 -21 123 0 109 1 118 20 123 15 4
20 14 20 36 0 24 -4 31 -20 31 -18 0 -20 7 -20 55 l0 55 -50 0 -50 0 0 -55z"/>
<path d="M1714 2640 c-30 -12 -54 -49 -54 -82 0 -26 3 -28 40 -28 34 0 42 4
50 26 8 21 15 25 42 22 28 -2 33 -7 33 -28 0 -21 -12 -31 -70 -61 -55 -28 -74
-43 -89 -73 -23 -48 -15 -114 18 -145 31 -29 98 -31 128 -5 15 14 22 16 25 7
3 -8 22 -13 46 -13 l42 0 -5 171 -5 171 -28 24 c-23 20 -38 24 -90 23 -34 0
-72 -4 -83 -9z"/>
<path d="M2334 2640 c-30 -12 -54 -49 -54 -82 0 -26 3 -28 40 -28 34 0 42 4
50 26 8 21 15 25 42 22 28 -2 33 -7 33 -28 0 -21 -12 -31 -70 -61 -55 -28 -74
-43 -89 -73 -23 -48 -15 -114 18 -145 31 -29 98 -31 128 -5 15 14 22 16 25 7
3 -8 22 -13 46 -13 l42 0 -5 171 -5 171 -28 24 c-23 20 -38 24 -90 23 -34 0
-72 -4 -83 -9z"/>
<path d="M2732 2628 c-19 -19 -22 -20 -22 -5 0 14 -9 17 -45 17 l-45 0 0 -190
0 -190 45 0 45 0 0 129 c0 154 8 184 48 179 l27 -3 3 -152 3 -153 44 0 45 0 0
173 c0 168 -1 174 -23 195 -32 30 -95 30 -125 0z"/>
<path d="M3590 2637 c-28 -14 -50 -51 -50 -84 0 -20 5 -23 44 -23 39 0 45 3
48 23 2 18 9 22 38 22 31 0 35 -3 35 -25 0 -20 -11 -31 -60 -57 -85 -45 -105
-71 -105 -139 0 -45 4 -59 25 -79 35 -36 95 -37 133 -2 19 18 22 18 22 4 0
-13 9 -17 43 -17 l42 0 -3 157 c-1 87 -5 168 -7 180 -3 13 -19 29 -35 38 -35
18 -135 20 -170 2z"/>
<path d="M4311 2634 c-38 -27 -51 -74 -51 -187 0 -57 5 -118 11 -136 14 -41
59 -64 126 -64 101 0 133 47 133 195 0 167 -27 208 -134 208 -41 0 -69 -6 -85
-16z m119 -73 c14 -28 13 -214 -2 -229 -17 -17 -65 -15 -72 4 -11 30 -7 219 6
232 18 18 56 14 68 -7z"/>
<path d="M4712 2628 c-19 -19 -22 -20 -22 -5 0 14 -9 17 -45 17 l-45 0 0 -190
0 -190 45 0 45 0 1 128 c1 160 6 177 44 177 l30 0 3 -152 3 -153 44 0 45 0 0
173 c0 168 -1 174 -23 195 -32 30 -95 30 -125 0z"/>
<path d="M4979 2635 c-25 -13 -49 -59 -49 -91 0 -10 14 -14 44 -14 38 0 45 3
50 25 5 20 12 25 40 25 35 0 50 -17 39 -45 -3 -9 -33 -29 -67 -44 -78 -35
-106 -69 -106 -128 0 -58 23 -101 58 -109 15 -3 32 -7 39 -9 6 -2 27 5 47 15
20 10 36 14 36 9 0 -5 21 -9 46 -9 l46 0 -4 170 c-3 160 -4 171 -26 192 -18
19 -35 23 -95 25 -50 2 -80 -1 -98 -12z"/>
<path d="M6074 2616 l-34 -34 0 -123 c0 -133 7 -159 51 -191 34 -25 128 -28
163 -4 30 19 41 39 50 89 l7 37 -51 0 c-43 0 -50 -3 -50 -19 0 -34 -12 -51
-34 -51 -33 0 -46 19 -46 67 l0 43 91 0 92 0 -6 70 c-10 121 -37 150 -140 150
-54 0 -62 -3 -93 -34z"/>
<path d="M6409 2635 c-33 -18 -51 -64 -39 -102 16 -55 23 -64 92 -114 54 -39
69 -55 66 -72 -2 -17 -10 -22 -33 -22 -25 0 -31 5 -35 30 -5 27 -9 30 -48 33
-50 4 -59 -10 -43 -61 21 -64 80 -92 161 -77 61 11 93 47 93 104 0 54 -18 78
-106 138 -45 31 -57 44 -55 61 2 17 10 22 33 22 25 0 30 -4 33 -27 3 -26 7
-28 48 -28 44 0 44 0 44 36 0 26 -8 43 -29 65 -27 26 -36 29 -93 29 -35 -1
-75 -7 -89 -15z"/>
<path d="M6738 2635 c-44 -24 -62 -88 -56 -204 7 -138 38 -181 132 -183 86 -1
136 39 136 112 0 29 -2 30 -45 30 -41 0 -45 -2 -45 -24 0 -30 -22 -49 -52 -44
-20 3 -23 9 -26 56 l-3 52 85 0 86 0 0 70 c0 81 -13 116 -51 136 -36 18 -126
17 -161 -1z"/>
<path d="M7074 2640 c-30 -12 -54 -49 -54 -82 0 -26 3 -28 44 -28 39 0 45 3
48 23 2 18 9 22 38 22 31 0 35 -3 35 -25 0 -21 -12 -31 -71 -63 -41 -22 -78
-50 -85 -64 -16 -30 -16 -102 0 -132 26 -47 106 -58 147 -20 20 19 24 20 24 6
0 -13 9 -17 43 -17 l42 0 -3 162 c-1 92 -7 172 -13 184 -6 12 -22 27 -36 33
-28 13 -128 14 -159 1z"/>
<path d="M7479 2621 l-29 -29 0 24 c0 22 -4 24 -45 24 l-45 0 0 -190 0 -190
50 0 50 0 0 128 c0 139 5 152 52 152 27 0 28 1 28 55 0 65 -15 72 -61 26z"/>
<path d="M7641 2634 c-38 -27 -51 -74 -51 -184 0 -152 30 -202 123 -202 86 0
127 44 127 135 0 27 -1 28 -47 25 -48 -3 -48 -3 -53 -43 -4 -32 -9 -40 -25
-40 -19 0 -20 7 -20 125 0 122 1 125 23 128 19 3 22 -1 22 -32 l0 -36 51 0 52
0 -6 43 c-9 63 -51 97 -120 97 -32 0 -61 -6 -76 -16z"/>
<path d="M1990 2605 l0 -35 60 0 c33 0 60 -3 60 -7 0 -3 -29 -60 -65 -125 -38
-70 -65 -131 -65 -149 l0 -29 120 0 120 0 0 35 0 35 -65 0 c-36 0 -65 2 -65 4
0 2 29 56 65 120 45 81 65 127 65 151 l0 35 -115 0 -115 0 0 -35z"/>
<path d="M4090 2450 l0 -190 45 0 45 0 0 190 0 190 -45 0 -45 0 0 -190z"/>
<path d="M1412 1913 l3 -38 53 -3 52 -3 0 -215 0 -214 50 0 50 0 0 215 0 215
55 0 55 0 0 40 0 40 -161 0 -160 0 3 -37z"/>
<path d="M2380 1695 l0 -255 45 0 45 0 0 141 c0 77 5 149 10 160 13 23 55 25
64 3 3 -9 6 -81 6 -160 l0 -144 45 0 45 0 0 168 c0 182 -5 203 -57 223 -31 12
-88 -5 -103 -29 -7 -12 -9 7 -10 66 l0 82 -45 0 -45 0 0 -255z"/>
<path d="M3400 1695 l0 -255 45 0 45 0 0 255 0 255 -45 0 -45 0 0 -255z"/>
<path d="M5070 1695 l0 -255 50 0 50 0 0 255 0 255 -50 0 -50 0 0 -255z"/>
<path d="M5432 1731 c3 -204 4 -222 24 -248 30 -40 66 -54 138 -55 72 0 110
15 140 55 20 26 21 44 24 248 l3 219 -50 0 -51 0 0 -198 c0 -225 -5 -242 -65
-242 -60 0 -65 17 -65 242 l0 198 -51 0 -50 0 3 -219z"/>
<path d="M7740 1880 c0 -38 -4 -50 -15 -50 -10 0 -15 -11 -15 -35 0 -24 5 -35
15 -35 13 0 15 -21 15 -132 0 -86 5 -142 13 -158 14 -28 63 -46 101 -36 22 5
26 12 26 41 0 28 -4 35 -20 35 -19 0 -20 7 -20 125 0 118 1 125 20 125 16 0
20 7 20 31 0 22 -5 32 -20 36 -17 4 -20 14 -20 54 l0 49 -50 0 -50 0 0 -50z"/>
<path d="M1811 1827 c-59 -21 -76 -55 -79 -166 -6 -172 23 -222 132 -229 58
-4 66 -2 95 24 24 21 34 41 38 72 l6 42 -45 0 c-41 0 -45 -2 -53 -32 -8 -28
-15 -33 -40 -33 -29 0 -30 2 -33 53 l-3 52 85 0 86 0 0 65 c0 72 -18 128 -47
143 -32 17 -106 22 -142 9z"/>
<path d="M2142 1829 c-57 -17 -72 -55 -72 -192 0 -77 5 -129 14 -151 17 -42
60 -60 127 -54 69 7 91 30 97 102 l4 56 -46 0 c-45 0 -46 -1 -46 -32 0 -46
-15 -66 -37 -52 -15 9 -19 28 -21 110 -4 124 1 146 31 142 17 -2 23 -11 25
-35 3 -32 5 -33 48 -33 l44 0 0 39 c0 49 -29 87 -78 101 -43 11 -46 11 -90 -1z"/>
<path d="M2860 1833 c-8 -3 -23 -12 -32 -21 -16 -14 -18 -13 -18 1 0 13 -10
17 -45 17 l-45 0 0 -195 0 -195 45 0 45 0 0 144 c0 118 3 147 16 160 21 21 41
20 54 -3 5 -11 10 -83 10 -160 l0 -141 45 0 45 0 0 169 c0 162 -1 171 -22 195
-23 26 -70 40 -98 29z"/>
<path d="M3131 1827 c-56 -20 -73 -53 -79 -155 -6 -114 3 -175 32 -209 19 -22
33 -27 85 -31 125 -9 151 25 151 196 0 122 -10 163 -46 187 -33 21 -102 27
-143 12z m93 -83 c11 -30 7 -219 -6 -232 -18 -18 -56 -14 -68 7 -5 11 -10 61
-10 111 0 50 5 100 10 111 13 24 65 26 74 3z"/>
<path d="M3651 1827 c-61 -22 -76 -54 -79 -175 -6 -177 21 -222 132 -222 109
0 136 40 135 197 0 111 -13 158 -49 184 -33 24 -97 32 -139 16z m87 -79 c8 -8
12 -49 12 -118 0 -111 -6 -130 -45 -130 -39 0 -45 19 -45 130 0 111 6 130 45
130 12 0 26 -5 33 -12z"/>
<path d="M3962 1830 c-42 -18 -54 -69 -50 -216 3 -124 5 -134 27 -158 29 -30
84 -35 119 -10 21 14 22 14 22 -10 0 -41 -10 -56 -40 -56 -16 0 -32 5 -35 10
-3 6 -26 10 -51 10 -42 0 -45 -2 -39 -22 13 -44 41 -61 103 -66 42 -3 68 1 91
13 55 28 61 58 61 295 l0 210 -45 0 c-35 0 -45 -4 -45 -17 0 -15 -1 -15 -18 0
-23 21 -71 29 -100 17z m108 -89 c13 -25 13 -181 0 -215 -11 -31 -45 -35 -60
-7 -11 21 -14 199 -4 225 9 22 51 20 64 -3z"/>
<path d="M4490 1827 c-55 -19 -70 -60 -70 -190 0 -163 27 -207 126 -207 79 0
124 50 124 138 0 20 -5 22 -49 22 l-50 0 -3 -42 c-2 -31 -8 -44 -20 -46 -26
-5 -38 37 -38 131 0 107 6 127 36 127 21 0 24 -5 24 -35 l0 -35 51 0 52 0 -7
42 c-8 49 -28 75 -73 94 -39 17 -57 17 -103 1z"/>
<path d="M4801 1827 c-37 -13 -66 -47 -75 -89 -6 -27 -5 -28 37 -28 37 0 46 4
55 26 10 21 18 25 45 22 27 -2 32 -7 32 -28 0 -21 -11 -31 -70 -60 -56 -28
-74 -43 -89 -73 -25 -51 -15 -118 21 -147 31 -24 89 -26 120 -5 14 10 24 12
28 5 3 -5 25 -10 48 -10 l42 0 -5 167 c-3 93 -9 175 -13 184 -18 37 -118 58
-176 36z"/>
<path d="M5968 1821 c-30 -15 -38 -16 -38 -5 0 10 -13 14 -45 14 l-45 0 0
-195 0 -195 45 0 45 0 0 139 c0 122 2 142 19 162 16 20 23 22 38 13 16 -10 18
-29 21 -163 l3 -151 44 0 45 0 0 169 c0 162 -1 171 -22 195 -32 35 -66 40
-110 17z"/>
<path d="M6735 1822 c-24 -11 -46 -31 -54 -48 -19 -42 -25 -159 -12 -229 15
-81 42 -107 115 -113 94 -8 146 31 146 108 0 29 -2 30 -44 30 -41 0 -45 -2
-48 -26 -4 -35 -31 -53 -55 -38 -12 7 -19 27 -21 57 l-3 46 88 3 88 3 -2 66
c-1 36 -7 77 -12 92 -22 57 -116 82 -186 49z"/>
<path d="M7310 1830 c-41 -10 -80 -51 -80 -86 0 -51 27 -90 99 -142 71 -52 81
-68 59 -90 -30 -30 -68 -8 -68 39 0 16 -7 19 -46 19 l-47 0 6 -42 c8 -62 42
-91 115 -96 97 -7 142 29 142 112 0 43 -27 76 -100 126 -32 22 -61 44 -64 49
-12 19 7 41 35 41 25 0 30 -5 36 -30 5 -28 9 -30 49 -30 41 0 44 2 44 28 0 44
-34 89 -77 101 -43 12 -54 12 -103 1z"/>
<path d="M4257 1824 c-4 -4 -7 -92 -7 -196 l0 -188 50 0 50 0 -2 193 -3 192
-40 3 c-23 2 -44 0 -48 -4z"/>
<path d="M6187 1824 c-4 -4 -7 -92 -7 -196 l0 -188 50 0 50 0 -2 193 -3 192
-40 3 c-23 2 -44 0 -48 -4z"/>
<path d="M6338 1824 c-3 -3 2 -37 12 -77 10 -40 30 -125 45 -189 l27 -118 57
0 58 0 41 183 c23 100 42 188 42 195 0 8 -16 12 -44 12 -51 0 -45 11 -72 -152
-10 -60 -21 -108 -24 -108 -3 0 -14 51 -24 113 -24 155 -20 147 -70 147 -23 0
-45 -2 -48 -6z"/>
<path d="M7010 1636 l0 -196 45 0 45 0 0 123 c0 136 6 154 55 159 29 3 30 5
33 56 3 47 1 52 -18 52 -11 0 -32 -11 -45 -24 -24 -24 -24 -24 -27 -2 -2 17
-11 22 -45 24 l-43 3 0 -195z"/>
<path d="M7560 1635 l0 -195 45 0 45 0 0 195 0 195 -45 0 -45 0 0 -195z"/>
<path d="M7920 1816 c0 -8 20 -98 45 -200 53 -221 55 -236 20 -236 -22 0 -25
-4 -25 -34 0 -26 5 -35 21 -39 32 -8 76 3 94 23 16 17 125 438 125 480 0 17
-7 20 -40 20 -26 0 -43 -5 -46 -14 -3 -8 -16 -70 -29 -138 -21 -113 -23 -120
-30 -83 -4 22 -16 82 -26 134 -11 51 -19 95 -19 97 0 2 -20 4 -45 4 -32 0 -45
-4 -45 -14z"/>
<path d="M2064 1140 c-16 -5 -41 -21 -55 -36 -20 -22 -24 -36 -24 -89 0 -57 3
-67 30 -95 17 -18 50 -46 75 -62 96 -65 116 -99 90 -149 -7 -13 -21 -19 -45
-19 -40 0 -55 20 -55 74 l0 36 -50 0 -50 0 0 -47 c0 -92 53 -143 147 -143 108
0 163 49 163 146 0 68 -26 104 -119 168 -85 59 -96 73 -88 108 14 56 93 37 99
-24 3 -32 5 -33 52 -36 l49 -3 -6 50 c-7 59 -27 93 -64 110 -37 17 -112 22
-149 11z"/>
<path d="M3335 1136 c-47 -18 -72 -48 -80 -98 -13 -76 13 -115 138 -202 62
-44 67 -50 67 -85 0 -44 -14 -61 -51 -61 -34 0 -59 32 -59 77 0 33 0 33 -50
33 l-50 0 0 -37 c1 -60 33 -121 74 -138 45 -19 129 -19 166 0 59 30 90 98 75
165 -10 44 -54 91 -136 145 -38 25 -69 49 -69 54 0 5 -3 16 -6 24 -6 18 29 57
51 57 25 0 55 -38 55 -71 0 -30 1 -30 48 -27 l47 3 -3 40 c-5 49 -25 90 -56
110 -34 23 -114 28 -161 11z"/>
<path d="M5662 1141 c-43 -11 -78 -45 -94 -90 -8 -23 -13 -89 -13 -181 0 -125
3 -150 20 -185 28 -56 73 -77 152 -73 90 5 131 49 136 145 l2 48 -46 3 -46 3
-7 -47 c-7 -56 -20 -74 -52 -74 -45 0 -54 32 -54 186 0 78 3 150 6 159 8 20
48 37 69 29 8 -4 20 -26 26 -51 l12 -44 46 3 46 3 -4 40 c-4 49 -24 90 -54
110 -29 19 -102 27 -145 16z"/>
<path d="M2370 881 l0 -261 50 0 50 0 0 104 0 103 58 6 c110 9 153 53 153 153
0 62 -15 99 -54 128 -24 18 -46 21 -143 25 l-114 3 0 -261z"/>
<path d="M2750 880 l0 -260 135 0 135 0 0 40 0 40 -85 0 -85 0 0 75 0 75 80 0
80 0 0 40 0 40 -80 0 -80 0 0 65 0 65 85 0 85 0 0 40 0 40 -135 0 -135 0 0
-260z"/>
<path d="M4347 1133 c-4 -3 -7 -37 -7 -74 l0 -67 -31 15 c-41 21 -94 10 -116
-24 -13 -20 -19 -54 -21 -130 -5 -133 3 -189 33 -219 31 -31 87 -32 115 -4 16
16 20 17 20 5 0 -11 12 -15 45 -15 l45 0 0 260 0 260 -38 0 c-21 0 -42 -3 -45
-7z m-23 -199 c21 -21 23 -211 2 -239 -17 -24 -43 -14 -57 22 -16 41 -7 212
11 224 20 12 26 11 44 -7z"/>
<path d="M5937 1134 c-4 -4 -7 -121 -7 -261 l0 -253 50 0 50 0 0 149 c0 125 3
152 16 166 9 9 23 14 31 11 8 -3 17 -6 19 -6 2 0 4 -72 4 -160 l0 -160 51 0
50 0 -3 174 c-3 154 -5 176 -22 195 -29 32 -82 38 -116 12 l-29 -21 -3 78 -3
77 -40 3 c-23 2 -44 0 -48 -4z"/>
<path d="M3650 1061 c0 -40 -3 -50 -20 -54 -15 -4 -20 -14 -20 -36 0 -24 4
-31 20 -31 19 0 20 -7 20 -143 0 -125 2 -146 18 -159 22 -20 60 -29 89 -22 31
8 33 69 3 77 -19 5 -20 14 -20 126 0 114 1 121 20 121 16 0 20 7 20 35 0 28
-4 35 -20 35 -17 0 -20 7 -20 50 l0 50 -45 0 -45 0 0 -49z"/>
<path d="M5200 1061 c0 -40 -3 -50 -20 -54 -15 -4 -20 -14 -20 -36 0 -24 4
-31 20 -31 19 0 20 -7 20 -138 0 -152 7 -175 58 -185 50 -10 72 1 72 38 0 24
-5 34 -20 38 -19 5 -20 14 -20 126 0 114 1 121 20 121 16 0 20 7 20 35 0 28
-4 35 -20 35 -17 0 -20 7 -20 50 l0 50 -45 0 -45 0 0 -49z"/>
<path d="M6960 1061 c0 -40 -3 -50 -20 -54 -15 -4 -20 -14 -20 -36 0 -24 4
-31 20 -31 19 0 20 -7 20 -143 0 -125 2 -146 18 -159 22 -20 60 -29 89 -22 31
8 33 69 3 77 -19 5 -20 14 -20 126 0 114 1 121 20 121 16 0 20 7 20 35 0 28
-4 35 -20 35 -17 0 -20 7 -20 50 l0 50 -45 0 -45 0 0 -49z"/>
<path d="M4573 1006 c-51 -23 -63 -59 -63 -186 0 -134 13 -174 64 -195 45 -19
109 -19 145 0 27 14 44 42 57 98 6 27 6 27 -45 27 -47 0 -51 -2 -51 -23 0 -27
-17 -47 -42 -47 -23 0 -38 30 -38 74 l0 35 88 3 87 3 3 35 c6 61 -8 120 -36
151 -22 25 -37 31 -82 35 -36 3 -66 -1 -87 -10z"/>
<path d="M4990 1013 c-8 -3 -23 -12 -32 -21 -16 -14 -18 -13 -18 1 0 13 -10
17 -45 17 l-45 0 0 -195 0 -195 45 0 45 0 0 141 c0 144 7 179 38 179 37 0 42
-19 42 -172 l0 -148 45 0 45 0 0 165 c0 99 -4 174 -11 188 -17 37 -67 55 -109
40z"/>
<path d="M6333 1009 c-37 -11 -58 -38 -68 -86 l-7 -33 45 0 c39 0 46 3 51 24
7 29 37 41 66 26 40 -22 24 -49 -51 -85 -74 -35 -100 -63 -106 -117 -9 -94 62
-153 142 -115 21 10 37 12 40 7 3 -6 25 -10 48 -10 l42 0 -5 167 c-3 108 -9
176 -18 190 -21 37 -108 53 -179 32z"/>
<path d="M6726 999 c-21 -17 -26 -18 -26 -5 0 12 -11 16 -45 16 l-45 0 0 -260
0 -260 45 0 45 0 0 74 0 75 28 -15 c40 -21 77 -17 109 10 28 24 28 25 31 159
4 152 -8 200 -53 217 -39 15 -59 12 -89 -11z m38 -65 c12 -12 16 -38 16 -115
0 -129 -20 -167 -64 -123 -23 22 -23 200 0 232 18 26 27 27 48 6z"/>
<path d="M7210 1002 c-53 -26 -70 -70 -70 -177 0 -157 28 -205 122 -213 29 -2
65 1 80 7 34 13 68 65 68 104 0 25 -3 27 -43 27 -40 0 -44 -2 -52 -32 -7 -21
-17 -34 -30 -36 -32 -4 -44 11 -51 61 l-7 47 92 0 91 0 0 65 c0 36 -7 81 -15
101 -25 59 -114 82 -185 46z"/>
<path d="M3840 830 c0 -167 1 -181 20 -200 31 -31 94 -27 125 6 24 26 25 26
25 5 0 -18 6 -21 40 -21 l40 0 0 195 0 195 -45 0 -45 0 0 -154 c0 -128 -3
-156 -16 -167 -11 -9 -20 -10 -32 -2 -15 9 -17 33 -20 167 l-3 156 -44 0 -45
0 0 -180z"/>
<path d="M7487 1003 c-4 -3 -7 -91 -7 -195 l0 -188 50 0 50 0 0 129 c0 123 1
131 22 145 12 9 30 16 40 16 15 0 18 9 18 50 0 59 -17 66 -62 23 l-28 -27 0
27 c0 25 -3 27 -38 27 -21 0 -42 -3 -45 -7z"/>
</g>
</svg>
